<?xml version="1.0" encoding="utf-8"?>
<!-- Generator: Adobe Illustrator 16.0.0, SVG Export Plug-In . SVG Version: 6.00 Build 0)  -->
<!DOCTYPE svg PUBLIC "-//W3C//DTD SVG 1.1//EN" "http://www.w3.org/Graphics/SVG/1.1/DTD/svg11.dtd">
<svg version="1.1" id="Layer_1" xmlns="http://www.w3.org/2000/svg" xmlns:xlink="http://www.w3.org/1999/xlink" x="0px" y="0px"
	 width="57.5px" height="68px" viewBox="0 0 57.5 68" enable-background="new 0 0 57.5 68" xml:space="preserve">
<rect x="-2" y="-2" fill="#0D1128" width="61" height="71.5"/>
<g>
	<g>
		<polygon fill="#FFFFFF" points="20.072,19.366 18.762,20.305 17.623,21.078 17.789,24.81 16.002,26.517 19.396,25.789 
			19.701,25.757 22.115,20.526 20.225,21.061 18.704,23.496 19.931,20.824 22.29,20.209 22.814,19.225 24.612,19.616 26.418,19.374 
			23.852,16.822 19.891,16.347 18.243,18.045 21.186,17.627 17.764,18.699 15.248,20.586 17.096,21.029 		"/>
		<path fill="#FFFFFF" d="M30.031,18.122l7.105-1.974l2.256,0.623l1.523,0.419l0.836,0.25l0.375-0.039c0,0,0.039-0.028,0.049-0.046
			c0.277-0.547,0.611-0.943,0.887-1.49c0.006-0.01,0.01-0.35,0.01-0.35c-0.041,0.031-0.16,0.25-0.16,0.25l-0.705,0.083l-5.172-2.604
			l-5.688,1.639c0,0-5.854-1.949-6.236-2.183c-0.008-0.006,2.012,4.126,2.012,4.126L30.031,18.122z"/>
		<path fill="#FFFFFF" d="M45.598,8.717c-0.121,0.168-0.797,1.815-0.797,1.815l-2.357,3.079l0.523,0.207l2.168-3.016
			c0,0,1.576-1.012,1.715-1.166c0.139-0.156,0.637-2.096,0.637-2.096C46.83,7.968,45.719,8.549,45.598,8.717z"/>
		<polygon fill="#FFFFFF" points="43.525,11.66 41.775,11.208 40.84,11.632 40.689,12.211 42.115,13.408 		"/>
		<polygon fill="#FFFFFF" points="42.23,15.541 42.762,15.41 42.994,14.729 43.156,14.123 41.84,13.566 40.609,12.594 
			40.049,14.375 41.311,15.044 		"/>
		<polygon fill="#FFFFFF" points="27.756,24.136 29.158,24.777 30.553,22.318 29.758,22.605 29.781,22.783 27.38,23.758 		"/>
		<polygon fill="#FFFFFF" points="31.068,50.625 28.887,51.74 29.232,52.613 32.883,52.53 32.186,51.447 		"/>
		<polygon fill="#FFFFFF" points="31.562,46.68 32.559,49.999 33.562,49.189 34.262,47.994 32.584,46.111 		"/>
		<polygon fill="#FFFFFF" points="23.967,20.42 22.787,23.415 23.799,25.096 23.799,25.207 23.227,26.307 24.307,26.045 
			24.99,24.765 24.13,23.336 24.795,21.482 26.717,21.135 27.333,21.768 25.205,22.497 25.039,23.729 26.375,25.333 27.051,25.908 
			29.051,26.426 28.797,25.367 27.162,24.414 26.301,23.381 29.223,22.377 27.254,19.827 		"/>
		<path fill="#FFFFFF" d="M38.955,26.465c-0.035-0.004-0.377-0.053-0.855-0.09l-2.557-1.93c2.465-3.428,4.994-6.945,4.994-6.945
			l-0.725-0.205c0,0-2.393,3.42-2.824,4.016c-0.141,0.194-1.133,1.553-2.287,3.135l-3.139,3.561l0.014,7.531l-6.1,7.277
			l-5.058-6.096l-2.232,1.519l-3.562-2.631l-5.289,8.354l3.286,1.693l3.398-4.15h0.606c0.007,0.111,0.018,0.24,0.028,0.381
			l-2.186,7.123l4.624-1.496l-0.598,1.357l2.276,2.167h-8.887l-0.854,1.191l12.588,0.042l-0.153-0.178l-3.578-3.404l0.848-1.926
			l3.789-0.963c-0.04,0.104-0.054,0.21-0.044,0.314l-1.405,2.733l3.395,3.7l1.407,0.066l-3.335-4.049l0.345-0.672l3.404,3.23
			l2.211-1.191l-3.051-2.361l0.855-1.121l4.359-1.48l1.15,0.184l-0.771,0.641l1.793,1.684l6.199-1.271l0.27-1.02l0.049-0.014
			l0.477-1.828l-5.156-3.786c0.441-0.752,0.973-1.57,1.475-2.122c0.969-1.062,0.746-2.725,0.453-3.797l0.855,0.16l2.582,1.748
			l2.25-1.912l-5.082-7.133L38.955,26.465z M17.214,40.824l-1.712-1.195l-3.297,4.682l-1.084-0.648l3.866-6.188l2.922,2.23
			L17.214,40.824z M40.205,44.146l-0.131,1.124l-4.758,1.238l-0.934-0.779l1.883-0.895l-3.098-0.883l2.184-2.166L40.205,44.146z
			 M39.039,29.747c-0.393,0.587-0.998,0.461-1.588,0.069c-0.588-0.393-0.936-0.905-0.543-1.492c0.393-0.589,0.998-0.463,1.586-0.071
			C39.084,28.647,39.432,29.158,39.039,29.747z M40.537,30.261l2.373,3.314l-0.727,0.618l-2.629-1.947L40.537,30.261z"/>
		<path fill="#FFFFFF" d="M20.02,35.24l5.469,6.619l5.521-6.617v-7.081L25.65,26.77l-5.631,1.383V35.24z M26.812,27.57l3.713,0.965
			v2.771h-3.713V27.57z M26.812,33.907h3.713v1.159l-3.713,4.451V33.907z M20.504,28.532l3.7-0.91v3.685h-3.7V28.532z
			 M20.504,33.907h3.7v5.638l-3.7-4.479V33.907z"/>
	</g>
	<g>
		<path fill="#FFFFFF" d="M8.413,61.072H4.746v-6.577h3.667v0.679H5.511v2.118h2.727v0.676H5.511v2.421h2.902V61.072z"/>
		<path fill="#FFFFFF" d="M15.009,61.072h-0.872l-3.596-5.521h-0.036c0.047,0.648,0.072,1.242,0.072,1.783v3.738H9.87v-6.577h0.864
			l3.586,5.497h0.036c-0.007-0.08-0.02-0.341-0.04-0.78c-0.021-0.44-0.029-0.755-0.023-0.942v-3.774h0.716V61.072z"/>
		<path fill="#FFFFFF" d="M16.291,58.944v-0.683H18.5v0.683H16.291z"/>
		<path fill="#FFFFFF" d="M22.203,57.379h2.61v3.409c-0.423,0.138-0.821,0.235-1.194,0.29c-0.373,0.057-0.756,0.084-1.145,0.084
			c-0.994,0-1.752-0.292-2.275-0.876c-0.523-0.582-0.785-1.419-0.785-2.513c0-1.061,0.304-1.891,0.911-2.483
			c0.607-0.595,1.449-0.89,2.526-0.89c0.675,0,1.326,0.135,1.952,0.404l-0.463,1.116c-0.479-0.241-0.979-0.36-1.497-0.36
			c-0.604,0-1.088,0.201-1.449,0.607c-0.363,0.405-0.545,0.95-0.545,1.633c0,0.715,0.146,1.26,0.438,1.637
			c0.293,0.377,0.718,0.564,1.275,0.564c0.291,0,0.587-0.031,0.887-0.09v-1.373h-1.247V57.379z"/>
		<path fill="#FFFFFF" d="M30.408,61.072l-0.479-1.565h-2.398l-0.478,1.565h-1.502l2.321-6.605h1.705l2.332,6.605H30.408z
			 M29.598,58.338c-0.441-1.42-0.689-2.223-0.744-2.408c-0.057-0.186-0.096-0.334-0.121-0.441c-0.098,0.385-0.381,1.333-0.85,2.85
			H29.598z"/>
		<path fill="#FFFFFF" d="M34.133,58.549v2.523h-1.395v-6.577h1.916c0.893,0,1.555,0.161,1.984,0.487s0.645,0.818,0.645,1.482
			c0,0.388-0.107,0.73-0.32,1.032s-0.514,0.537-0.904,0.708c0.99,1.48,1.635,2.436,1.934,2.867h-1.547l-1.57-2.523H34.133z
			 M34.133,57.414h0.449c0.441,0,0.768-0.074,0.977-0.22c0.211-0.147,0.314-0.378,0.314-0.694c0-0.311-0.105-0.533-0.322-0.664
			c-0.213-0.133-0.545-0.199-0.996-0.199h-0.422V57.414z"/>
		<path fill="#FFFFFF" d="M44.277,57.721c0,1.082-0.307,1.912-0.924,2.488c-0.615,0.574-1.506,0.863-2.67,0.863H38.82v-6.577h2.064
			c1.076,0,1.908,0.282,2.502,0.85C43.982,55.911,44.277,56.703,44.277,57.721z M42.83,57.756c0-1.412-0.625-2.119-1.873-2.119
			h-0.742v4.283h0.6C42.158,59.92,42.83,59.199,42.83,57.756z"/>
		<path fill="#FFFFFF" d="M49.43,61.072h-3.787v-6.577h3.787v1.142h-2.393v1.444h2.227v1.144h-2.227v1.695h2.393V61.072z"/>
		<path fill="#FFFFFF" d="M50.5,60.43c0-0.252,0.068-0.443,0.205-0.572c0.135-0.129,0.33-0.193,0.588-0.193
			c0.25,0,0.443,0.064,0.578,0.197c0.137,0.133,0.205,0.32,0.205,0.568c0,0.236-0.068,0.424-0.207,0.559
			c-0.137,0.139-0.33,0.205-0.576,0.205c-0.252,0-0.447-0.066-0.584-0.2C50.57,60.859,50.5,60.672,50.5,60.43z M51.846,58.891H50.75
			l-0.23-4.396h1.557L51.846,58.891z"/>
	</g>
</g>
</svg>
