<?xml version="1.0" encoding="utf-8"?>
<!-- Generator: Adobe Illustrator 16.0.0, SVG Export Plug-In . SVG Version: 6.00 Build 0)  -->
<!DOCTYPE svg PUBLIC "-//W3C//DTD SVG 1.1//EN" "http://www.w3.org/Graphics/SVG/1.1/DTD/svg11.dtd">
<svg version="1.1" id="Layer_1" xmlns="http://www.w3.org/2000/svg" xmlns:xlink="http://www.w3.org/1999/xlink" x="0px" y="0px"
	 width="21.75px" height="18.625px" viewBox="17 24.625 21.75 18.625" enable-background="new 17 24.625 21.75 18.625"
	 xml:space="preserve">
<rect x="17" y="24.625" fill="#0D1128" width="21.75" height="18.625"/>
<g>
	<path fill-rule="evenodd" clip-rule="evenodd" fill="#FFFFFF" d="M36.2,28.262c0-0.663-0.177-0.84-0.831-0.84
		c-5.033,0-10.067,0-15.102,0c-0.641,0-0.826,0.178-0.826,0.804c-0.002,3.324-0.002,6.648,0,9.973c0,0.624,0.162,0.78,0.79,0.78
		c2.517,0.001,5.033,0,7.55,0c2.531,0,5.062,0,7.592,0c0.68,0,0.827-0.145,0.827-0.824C36.201,34.857,36.201,31.56,36.2,28.262z
		 M27.758,38.24c-0.19,0-0.344-0.154-0.344-0.344s0.153-0.344,0.344-0.344c0.189,0,0.343,0.154,0.343,0.344
		S27.947,38.24,27.758,38.24z M35.349,36.836c-5.01,0-10.013,0-15.05,0c0-2.839,0-5.686,0-8.579c5.018,0,10.021,0,15.05,0
		C35.349,31.119,35.349,33.965,35.349,36.836z"/>
	<path fill-rule="evenodd" clip-rule="evenodd" fill="#FFFFFF" d="M30.951,40.99c0,0.134-0.108,0.242-0.242,0.242h-5.777
		c-0.134,0-0.243-0.108-0.243-0.242l0,0c0-0.134,0.108-0.242,0.243-0.242h5.777C30.843,40.748,30.951,40.856,30.951,40.99
		L30.951,40.99z"/>
	<polygon fill-rule="evenodd" clip-rule="evenodd" fill="#FFFFFF" points="30.365,40.443 25.275,40.443 26.083,39.252 
		29.558,39.252 	"/>
</g>
</svg>
